<svg id="icon" width="17" height="17" viewBox="0 0 17 17" fill="currentColor" xmlns="http://www.w3.org/2000/svg">
<path d="M14.8451 9.22348L10.3451 13.7235C10.2042 13.8644 10.0131 13.9435 9.81383 13.9435C9.61457 13.9435 9.42347 13.8644 9.28258 13.7235C9.14168 13.5826 9.06253 13.3915 9.06253 13.1922C9.06253 12.993 9.14168 12.8019 9.28258 12.661L12.502 9.44286H3.31445C3.11554 9.44286 2.92478 9.36384 2.78412 9.22319C2.64347 9.08254 2.56445 8.89177 2.56445 8.69286C2.56445 8.49395 2.64347 8.30318 2.78412 8.16253C2.92478 8.02188 3.11554 7.94286 3.31445 7.94286H12.502L9.28383 4.72286C9.14293 4.58196 9.06378 4.39087 9.06378 4.19161C9.06378 3.99235 9.14293 3.80125 9.28383 3.66036C9.42472 3.51946 9.61582 3.44031 9.81508 3.44031C10.0143 3.44031 10.2054 3.51946 10.3463 3.66036L14.8463 8.16036C14.9163 8.23013 14.9717 8.31303 15.0095 8.40429C15.0473 8.49556 15.0667 8.5934 15.0666 8.69218C15.0665 8.79097 15.0469 8.88875 15.0088 8.97993C14.9708 9.07111 14.9152 9.15388 14.8451 9.22348Z" fill="#C5A063"/>
</svg>
