<svg width="125" height="25" viewBox="0 0 125 25" fill="none" xmlns="http://www.w3.org/2000/svg">
<path fill-rule="evenodd" clip-rule="evenodd" d="M3.2657 10.6964H6.40021C9.04401 10.6964 10.2878 11.3694 10.2878 13.2881C10.2878 15.6976 7.95444 15.982 6.27102 15.982H3.2657V10.6964V10.6964ZM0 18.782H6.6065C10.0785 18.782 13.5515 17.5393 13.5515 13.5475C13.5515 11.1911 11.8931 9.3755 9.58579 9.11713V9.06405C11.4785 8.49523 12.7744 7.12226 12.7744 5.04827C12.7754 1.70445 9.92427 0.435627 7.15229 0.435627H0V18.782ZM3.2647 3.23466H5.95957C8.42211 3.23466 9.50968 4.01178 9.50968 5.59305C9.50968 6.96603 8.42211 7.89937 6.24498 7.89937H3.2657V3.23366L3.2647 3.23466ZM15.6846 18.782H18.794V0H15.6846V18.782ZM20.873 12.5621C20.873 16.4757 23.8783 19.0925 27.6368 19.0925C31.3932 19.0925 34.3985 16.4757 34.3985 12.5621C34.3985 8.64945 31.3932 6.03269 27.6368 6.03269C23.8783 6.03269 20.873 8.64945 20.873 12.5621ZM23.9825 12.5621C23.9825 10.6193 25.3545 8.83072 27.6368 8.83072C29.916 8.83072 31.289 10.6183 31.289 12.5621C31.289 14.5059 29.917 16.2935 27.6368 16.2935C25.3555 16.2935 23.9815 14.5059 23.9815 12.5621H23.9825ZM35.8045 12.5621C35.8045 16.4757 38.8108 19.0925 42.5682 19.0925C46.3246 19.0925 49.331 16.4757 49.331 12.5621C49.331 8.64945 46.3246 6.03269 42.5682 6.03269C38.8108 6.03269 35.8045 8.64945 35.8045 12.5621ZM38.914 12.5621C38.914 10.6193 40.2879 8.83072 42.5682 8.83072C44.8485 8.83072 46.2215 10.6183 46.2215 12.5621C46.2215 14.5059 44.8485 16.2935 42.5682 16.2935C40.2879 16.2935 38.913 14.5059 38.913 12.5621H38.914ZM51.2287 6.34313H54.1829V8.28593H54.234C54.7788 7.12125 55.9705 6.03269 58.0435 6.03269C59.9612 6.03269 61.2831 6.78377 61.9311 8.33901C62.8374 6.75673 64.1583 6.03169 66.024 6.03169C69.3417 6.03169 70.5074 8.39008 70.5074 11.3694V18.781H67.3979V11.7339C67.3979 10.1787 66.9313 8.83072 65.0916 8.83072C63.1488 8.83072 62.4228 10.437 62.4228 12.0433V18.781H59.3123V11.3704C59.3123 9.84117 58.6904 8.83072 57.1873 8.83072C55.1403 8.83072 54.3382 10.3339 54.3382 11.9923V18.782H51.2277V6.34213L51.2287 6.34313ZM73.028 18.782H75.9823V16.9154H76.0334C76.9407 18.4175 78.573 19.0925 80.3095 19.0925C84.144 19.0925 86.4503 16.2424 86.4503 12.5621C86.4503 8.88379 83.9888 6.03269 80.4387 6.03269C78.1063 6.03269 76.8625 7.12125 76.2156 7.92341H76.1375V0.00100144H73.028V18.781V18.782ZM83.3409 12.5621C83.3409 14.5059 81.9669 16.2935 79.6876 16.2935C77.4073 16.2935 76.0334 14.5059 76.0334 12.5621C76.0334 10.6193 77.4073 8.83072 79.6876 8.83072C81.9669 8.83072 83.3409 10.6183 83.3409 12.5621V12.5621ZM100.449 13.6497V12.7954C100.449 8.46919 98.0921 6.03169 94.6191 6.03169C90.8617 6.03169 87.8554 8.64945 87.8554 12.5621C87.8554 16.4757 90.8617 19.0925 94.6191 19.0925C96.5879 19.0925 98.4276 18.3915 99.8787 16.6039L97.6504 14.9215C96.8743 15.8799 95.8629 16.6039 94.3086 16.6039C92.5721 16.6039 91.1731 15.4923 90.9648 13.6497H100.449V13.6497ZM90.9658 11.3193C91.1992 9.53072 92.3388 8.36505 94.1785 8.36505C96.1213 8.36505 97.314 9.50469 97.339 11.3193H90.9648H90.9658ZM102.477 6.34313H105.586V8.31197H105.639C106.312 6.88792 107.685 6.03169 109.318 6.03169C109.707 6.03169 110.069 6.1108 110.432 6.21395V9.22028C109.913 9.09009 109.42 8.98694 108.93 8.98694C106.001 8.98694 105.585 11.4485 105.585 12.1215V18.781H102.477V6.34414V6.34313ZM121.067 6.34313V8.20982H121.015C120.109 6.70566 118.476 6.03169 116.739 6.03169C112.903 6.03169 110.599 8.88379 110.599 12.5621C110.599 16.0862 113.061 18.9373 116.791 18.9373C118.346 18.9373 119.953 18.3414 120.86 17.1237H120.911V18.031C120.911 20.4925 119.979 22.201 116.973 22.201C115.237 22.201 113.942 21.554 112.697 20.4134L110.831 22.9531C112.594 24.5083 114.693 25 116.999 25C121.844 25 124.021 22.1499 124.021 17.6674V6.34313H121.067ZM117.388 8.83072C119.642 8.83072 121.067 10.3339 121.067 12.484C121.067 14.559 119.668 16.1392 117.362 16.1392C115.263 16.1392 113.709 14.5069 113.709 12.5371C113.709 10.3339 115.211 8.83072 117.388 8.83072V8.83072Z" fill="#9A9A9A"/>
</svg>
