<svg width="64" height="64" viewBox="0 0 81 63" fill="none" xmlns="http://www.w3.org/2000/svg">
<path d="M80.4375 4.95C80.2125 4.725 79.875 4.6125 79.5375 4.725L75.375 5.2875V1.125C75.375 0.45 74.925 0 74.25 0C50.4 0 42.75 3.6 40.275 6.075C37.8 3.6 30.15 0 6.3 0C5.625 0 5.175 0.45 5.175 1.125V5.2875L1.2375 4.725C0.899999 4.725 0.562499 4.8375 0.337499 4.95C0.112499 5.0625 0 5.5125 0 5.85V56.7C0 57.2625 0.45 57.7125 1.0125 57.825L40.1625 63H40.275H40.3875L79.7625 57.825C80.325 57.7125 80.775 57.2625 80.775 56.7V5.7375C80.775 5.4 80.6625 5.0625 80.4375 4.95ZM73.125 2.1375V49.275C52.9875 49.3875 44.775 52.0875 41.4 54.45V8.325C41.5125 7.875 43.875 2.25 73.125 2.1375ZM7.425 2.1375C36.675 2.25 39.0375 7.875 39.15 8.325V54.45C35.775 52.0875 27.5625 49.3875 7.425 49.275V2.1375ZM78.525 55.575L40.275 60.6375L2.25 55.575V6.975L5.175 7.3125V50.2875C5.175 50.9625 5.625 51.4125 6.3 51.4125C37.4625 51.4125 39.15 57.4875 39.15 57.4875C39.15 57.6 39.15 57.7125 39.2625 57.825C39.4875 58.275 39.825 58.6125 40.275 58.6125C40.8375 58.6125 41.4 58.1625 41.4 57.6C41.4 57.4875 42.975 51.4125 74.25 51.4125C74.925 51.4125 75.375 50.9625 75.375 50.2875V7.425L78.525 7.0875V55.575Z" fill="#9a9a9a"/>
<path d="M14.4001 10.35C13.7251 10.35 13.2751 10.9125 13.3876 11.5875C13.3876 12.15 13.9501 12.7125 14.6251 12.6C27.6751 11.5875 32.2876 15.3 32.4001 15.4125C32.6251 15.6375 32.8501 15.75 33.1876 15.75C33.5251 15.75 33.7501 15.6375 33.9751 15.4125C34.4251 14.9625 34.3126 14.2875 33.8626 13.8375C33.6376 13.5 28.6876 9.22495 14.4001 10.35Z" fill="#9a9a9a"/>
<path d="M14.4001 19.5751C13.7251 19.5751 13.2751 20.1375 13.3876 20.8125C13.3876 21.4875 13.9501 21.9376 14.6251 21.8251C27.6751 20.8126 32.2876 24.5251 32.4001 24.6376C32.6251 24.8626 32.8501 24.9751 33.1876 24.9751C33.5251 24.9751 33.7501 24.8626 33.9751 24.6376C34.4251 24.1876 34.3126 23.5125 33.8626 23.0625C33.6376 22.725 28.6876 18.4501 14.4001 19.5751Z" fill="#9a9a9a"/>
<path d="M14.4001 28.8001C13.7251 28.8001 13.2751 29.3627 13.3876 30.0377C13.3876 30.6002 13.9501 31.1626 14.6251 31.0501C27.6751 30.0376 32.2876 33.7501 32.4001 33.8626C32.6251 34.0876 32.8501 34.2002 33.1876 34.2002C33.5251 34.2002 33.7501 34.0876 33.9751 33.8626C34.4251 33.4126 34.3126 32.7377 33.8626 32.2877C33.6376 31.9502 28.6876 27.6751 14.4001 28.8001Z" fill="#9a9a9a"/>
<path d="M14.4001 38.025C13.7251 38.025 13.2751 38.5875 13.3876 39.2625C13.3876 39.825 13.9501 40.3875 14.6251 40.275C27.6751 39.2625 32.2876 42.975 32.4001 43.0875C32.6251 43.3125 32.8501 43.425 33.1876 43.425C33.5251 43.425 33.7501 43.3125 33.9751 43.0875C34.4251 42.6375 34.3126 41.9625 33.8626 41.5125C33.6376 41.175 28.6876 36.9 14.4001 38.025Z" fill="#9a9a9a"/>
<path d="M47.4749 15.6376C47.6999 15.6376 48.0374 15.5251 48.2624 15.4126C48.2624 15.4126 52.8749 11.5876 66.0374 12.6001C66.7124 12.7126 67.1624 12.1501 67.2749 11.5876C67.2749 10.9126 66.8249 10.4626 66.2624 10.3501C51.9749 9.22513 47.0249 13.5001 46.7999 13.7251C46.3499 14.1751 46.3499 14.8501 46.6874 15.3001C46.9124 15.5251 47.1374 15.6376 47.4749 15.6376Z" fill="#9a9a9a"/>
<path d="M47.4749 24.8626C47.6999 24.8626 48.0374 24.7501 48.2624 24.6376C48.2624 24.6376 52.8749 20.8126 66.0374 21.8251C66.7124 21.9376 67.1624 21.3751 67.2749 20.8126C67.2749 20.1376 66.8249 19.6876 66.2624 19.5751C51.9749 18.4501 47.0249 22.7251 46.7999 22.9501C46.3499 23.4001 46.3499 24.0751 46.6874 24.5251C46.9124 24.7501 47.1374 24.8626 47.4749 24.8626Z" fill="#9a9a9a"/>
<path d="M47.4749 34.0875C47.6999 34.0875 48.0374 33.975 48.2624 33.8625C48.2624 33.8625 52.8749 30.0375 66.0374 31.05C66.7124 31.1625 67.1624 30.6 67.2749 30.0375C67.2749 29.3625 66.8249 28.9125 66.2624 28.8C51.9749 27.675 47.0249 31.95 46.7999 32.175C46.3499 32.625 46.3499 33.3 46.6874 33.75C46.9124 33.975 47.1374 34.0875 47.4749 34.0875Z" fill="#9a9a9a"/>
<path d="M54.7875 38.3623C49.05 39.2623 46.8 41.2873 46.6875 41.2873C46.2375 41.7373 46.2375 42.4123 46.575 42.8623C46.8 43.0873 47.1375 43.1998 47.475 43.1998C47.7 43.1998 48.0375 43.0873 48.2625 42.9748C48.2625 42.9748 50.175 41.3998 55.2375 40.4998C55.8 40.3873 56.25 39.8248 56.1375 39.2623C56.025 38.6998 55.4625 38.2498 54.7875 38.3623Z" fill="#9a9a9a"/>
</svg>
