<svg width="103" height="32" viewBox="0 0 103 32" fill="none" xmlns="http://www.w3.org/2000/svg">
<path fill-rule="evenodd" clip-rule="evenodd" d="M7.98401 32H10.38V19.2H7.98401V32ZM16.767 31.808H18.913V23.732L27.946 32V19.392H25.806V27.33L16.767 19.2V31.808ZM32.845 28.708C34.013 29.618 35.415 30.144 36.918 30.144C38.382 30.144 39.409 29.64 39.409 28.527C39.409 27.557 38.754 27.177 37.607 26.752L35.75 26.107C34.038 25.499 32.736 24.611 32.736 22.57C32.736 20.387 34.707 19.2 37.064 19.2C38.508 19.2 39.824 19.563 40.852 20.206V22.371C39.783 21.581 38.613 21.037 37.11 21.037C35.816 21.037 34.849 21.52 34.849 22.527C34.849 23.437 35.456 23.801 36.525 24.167L38.594 24.893C40.599 25.598 41.519 26.691 41.519 28.489C41.519 30.751 39.529 32 36.918 32C35.202 32 33.743 31.52 32.845 30.914V28.708ZM47.109 32H49.504V19.2H47.109V32ZM60.7401 30.063C63.4401 30.063 64.8831 28.331 64.8831 25.597C64.8831 22.843 63.4391 21.117 60.7401 21.117H58.0701V30.063H60.7401V30.063ZM55.8901 19.2H60.8201C64.6151 19.2 67.0691 21.7 67.0691 25.597C67.0691 29.497 64.6151 32 60.8201 32H55.8901V19.2ZM79.0471 19.2V21.117H73.2501V24.197H78.4491V26.092H73.2491V30.063H79.0471V32H71.0621V19.2H79.0471ZM87.5491 24.996H89.9261C91.3331 24.996 92.1261 24.224 92.1261 23.037C92.1261 21.85 91.3331 21.077 89.9261 21.077H87.5491V24.997V24.996ZM87.5491 26.806V32H85.4341V19.2H89.9661C92.5501 19.2 94.2221 20.531 94.2221 23.037C94.2221 25.18 93.2941 26.411 91.3171 26.727L95.8141 32H93.4081L89.0541 26.807H87.5501L87.5491 26.806ZM7.14701 6.59C8.08401 6.247 8.81401 5.218 8.81401 3.803C8.81401 1.445 7.14701 0.223 4.48 0.223H0V13.386H4.896C7.56301 13.386 9.23001 12.078 9.23001 9.613C9.23001 8.219 8.35501 6.997 7.14701 6.59ZM2.104 5.754V2.153H4.46C5.94001 2.153 6.73101 2.689 6.73101 3.932C6.73101 5.175 5.93901 5.754 4.46 5.754H2.104ZM2.104 7.598H4.854C6.31401 7.598 7.10501 8.326 7.10501 9.527C7.10501 10.706 6.31301 11.457 4.855 11.457H2.105V7.597L2.104 7.598ZM19.005 13.6C22.068 13.6 24.131 11.756 24.131 8.155V0.223H21.964V7.897C21.964 10.427 20.922 11.607 19.005 11.607C17.088 11.607 16.047 10.427 16.047 7.897V0.223H13.88V8.133C13.88 11.756 15.963 13.6 19.005 13.6V13.6ZM29.233 12.442C30.129 13.086 31.588 13.6 33.296 13.6C35.901 13.6 37.88 12.27 37.88 9.87C37.88 7.962 36.964 6.804 34.963 6.054L32.901 5.282C31.838 4.897 31.234 4.511 31.234 3.546C31.234 2.474 32.192 1.96 33.484 1.96C34.984 1.96 36.151 2.538 37.214 3.375V1.08C36.193 0.395 34.88 0.009 33.442 0.009C31.088 0.009 29.129 1.274 29.129 3.589C29.129 5.754 30.421 6.697 32.129 7.34L33.984 8.026C35.13 8.476 35.776 8.884 35.776 9.913C35.776 11.092 34.755 11.628 33.296 11.628C31.796 11.628 30.4 11.07 29.233 10.106V12.442V12.442ZM45.623 0.223H43.457V13.385H45.623V0.223ZM51.805 13.369H53.8931V4.806L62.6811 13.573V0.203H60.5991V8.62L51.805 0V13.369V13.369ZM76.2221 0.226V2.197H70.5961V5.365H75.6411V7.314H70.5961V11.397H76.2221V13.389H68.4721V0.226H76.2221ZM81.2671 12.433C82.1631 13.077 83.6211 13.591 85.3301 13.591C87.9341 13.591 89.9141 12.262 89.9141 9.861C89.9141 7.953 88.9971 6.796 86.9971 6.045L84.9341 5.274C83.8711 4.888 83.2671 4.502 83.2671 3.537C83.2671 2.465 84.2251 1.951 85.5171 1.951C87.0171 1.951 88.1841 2.53 89.2471 3.366V1.072C88.2261 0.386 86.9131 0 85.4751 0C83.1211 0 81.1621 1.265 81.1621 3.58C81.1621 5.745 82.4541 6.688 84.1621 7.331L86.0171 8.017C87.1631 8.467 87.8091 8.875 87.8091 9.904C87.8091 11.083 86.7891 11.619 85.3291 11.619C83.8291 11.619 82.4331 11.062 81.2671 10.097V12.433V12.433ZM94.3531 12.433C95.2491 13.077 96.7081 13.591 98.4161 13.591C101.021 13.591 103 12.262 103 9.861C103 7.953 102.083 6.796 100.083 6.045L98.0201 5.274C96.9581 4.888 96.3531 4.502 96.3531 3.537C96.3531 2.465 97.3121 1.951 98.6031 1.951C100.103 1.951 101.271 2.53 102.333 3.366V1.072C101.313 0.386 100 0 98.5621 0C96.2071 0 94.2491 1.265 94.2491 3.58C94.2491 5.745 95.5411 6.688 97.2491 7.331L99.1041 8.017C100.25 8.467 100.896 8.875 100.896 9.904C100.896 11.083 99.8751 11.619 98.4161 11.619C96.9161 11.619 95.5201 11.062 94.3531 10.097V12.433V12.433Z" fill="#9A9A9A"/>
</svg>
