<svg id="icon" width="25" height="25" viewBox="0 0 25 25" fill="none" xmlns="http://www.w3.org/2000/svg">
<path opacity="0.2" d="M19.3184 15.8967C19.3184 16.8913 18.9233 17.8451 18.22 18.5484C17.5167 19.2516 16.5629 19.6467 15.5684 19.6467H8.81836V5.39673H14.4434C15.3385 5.39673 16.1969 5.75231 16.8298 6.38524C17.4628 7.01818 17.8184 7.87662 17.8184 8.77173C17.8184 9.66683 17.4628 10.5253 16.8298 11.1582C16.1969 11.7911 15.3385 12.1467 14.4434 12.1467H15.5684C16.5629 12.1467 17.5167 12.5418 18.22 13.2451C18.9233 13.9483 19.3184 14.9022 19.3184 15.8967Z" fill="#C5A063"/>
<path d="M17.3009 11.7436C17.8701 11.1955 18.2699 10.4954 18.4528 9.72666C18.6356 8.95789 18.5938 8.15277 18.3323 7.40707C18.0708 6.66137 17.6006 6.00648 16.9777 5.52029C16.3547 5.0341 15.6052 4.73707 14.8184 4.66454V3.14673C14.8184 2.94782 14.7393 2.75705 14.5987 2.6164C14.458 2.47575 14.2673 2.39673 14.0684 2.39673C13.8694 2.39673 13.6787 2.47575 13.538 2.6164C13.3974 2.75705 13.3184 2.94782 13.3184 3.14673V4.64673H11.8184V3.14673C11.8184 2.94782 11.7393 2.75705 11.5987 2.6164C11.458 2.47575 11.2673 2.39673 11.0684 2.39673C10.8694 2.39673 10.6787 2.47575 10.538 2.6164C10.3974 2.75705 10.3184 2.94782 10.3184 3.14673V4.64673H7.31836C7.11945 4.64673 6.92868 4.72575 6.78803 4.8664C6.64738 5.00705 6.56836 5.19782 6.56836 5.39673C6.56836 5.59564 6.64738 5.78641 6.78803 5.92706C6.92868 6.06771 7.11945 6.14673 7.31836 6.14673H8.06836V18.8967H7.31836C7.11945 18.8967 6.92868 18.9757 6.78803 19.1164C6.64738 19.2571 6.56836 19.4478 6.56836 19.6467C6.56836 19.8456 6.64738 20.0364 6.78803 20.1771C6.92868 20.3177 7.11945 20.3967 7.31836 20.3967H10.3184V21.8967C10.3184 22.0956 10.3974 22.2864 10.538 22.4271C10.6787 22.5677 10.8694 22.6467 11.0684 22.6467C11.2673 22.6467 11.458 22.5677 11.5987 22.4271C11.7393 22.2864 11.8184 22.0956 11.8184 21.8967V20.3967H13.3184V21.8967C13.3184 22.0956 13.3974 22.2864 13.538 22.4271C13.6787 22.5677 13.8694 22.6467 14.0684 22.6467C14.2673 22.6467 14.458 22.5677 14.5987 22.4271C14.7393 22.2864 14.8184 22.0956 14.8184 21.8967V20.3967H15.5684C16.6085 20.3967 17.6165 20.0364 18.4209 19.3771C19.2254 18.7177 19.7766 17.8001 19.9808 16.7802C20.185 15.7603 20.0296 14.7011 19.541 13.7829C19.0524 12.8647 18.2608 12.1441 17.3009 11.7436ZM9.56836 6.14673H14.4434C15.1396 6.14673 15.8072 6.42329 16.2995 6.91557C16.7918 7.40786 17.0684 8.07554 17.0684 8.77173C17.0684 9.46792 16.7918 10.1356 16.2995 10.6279C15.8072 11.1202 15.1396 11.3967 14.4434 11.3967H9.56836V6.14673ZM15.5684 18.8967H9.56836V12.8967H15.5684C16.364 12.8967 17.1271 13.2128 17.6897 13.7754C18.2523 14.338 18.5684 15.1011 18.5684 15.8967C18.5684 16.6924 18.2523 17.4554 17.6897 18.018C17.1271 18.5807 16.364 18.8967 15.5684 18.8967Z" fill="#C5A063"/>
</svg>
