<svg width="64" height="64" viewBox="0 0 86 56" fill="none" xmlns="http://www.w3.org/2000/svg">
<path d="M85.9965 1.57532C85.9965 1.39094 85.864 1.26742 85.7973 1.09914C85.7455 0.938031 85.7754 0.758122 85.6657 0.611331C85.6358 0.581794 85.599 0.585374 85.5875 0.561207C85.4559 0.400095 85.2725 0.358028 85.0768 0.266731C84.8934 0.182594 84.746 0.0545995 84.5468 0.0429636C84.5099 0.0393833 84.4889 0 84.452 0H1.54449C1.50763 0 1.48569 0.0393833 1.44884 0.0429636C1.24261 0.0545995 1.09606 0.178119 0.918796 0.266731C0.735388 0.358923 0.551102 0.407256 0.411571 0.561207C0.396653 0.585374 0.341367 0.578214 0.322939 0.611331C0.223776 0.761703 0.250102 0.938031 0.197449 1.09914C0.13251 1.26742 0 1.39094 0 1.57532V54.4283C0 54.6126 0.13251 54.7362 0.198326 54.9044C0.253612 55.07 0.223775 55.2499 0.323816 55.3922C0.353653 55.4263 0.386122 55.411 0.412449 55.437C0.68098 55.7673 1.08202 56 1.54537 56H84.4538C84.9162 56 85.3102 55.7673 85.5972 55.437C85.6262 55.411 85.649 55.4263 85.6709 55.3922C85.7815 55.2463 85.7517 55.07 85.8026 54.9044C85.8684 54.7388 86 54.6153 86 54.4274V1.57532H85.9965ZM3.08108 4.78146L32.436 27.9987L3.08108 51.2141V4.78146ZM50.1143 26.7482C50.1064 26.7518 50.0889 26.7482 50.0889 26.7518L43.3861 32.0694L43 32.3738L42.6762 32.1258L35.9111 26.7554C35.8962 26.7518 35.8892 26.7554 35.8743 26.7518L6.04106 3.14975H79.937L50.1143 26.7482ZM34.959 29.992L42.0549 35.6032C42.2093 35.7303 42.4077 35.7338 42.5955 35.7938C42.6876 35.8162 42.7789 35.8878 42.8894 35.895C42.9412 35.8994 42.9667 35.9442 43.0035 35.9442C43.0439 35.9442 43.0807 35.903 43.1132 35.903C43.2229 35.8914 43.3045 35.8314 43.4072 35.8019C43.5915 35.7455 43.7898 35.7303 43.9513 35.6067L51.0594 29.9956L79.951 52.861H6.0551L34.959 29.992ZM53.5631 28.0022L82.911 4.78504V51.2212L53.5631 28.0022Z" fill="#9a9a9a"/>
</svg>
