<svg width="96" height="25" viewBox="0 0 96 25" fill="none" xmlns="http://www.w3.org/2000/svg">
<path d="M46.2929 6.76807C45.4921 6.76807 45.0529 6.84557 44.4071 7.15556C43.2188 7.69806 42.3404 8.57639 41.5654 9.99721L41.3071 10.4364L41.3329 9.63555C41.3588 9.19638 41.3846 8.39556 41.4104 7.82723L41.4363 6.81974H41.2554C41.0488 6.81974 34.2288 8.18889 34.0222 8.26639C33.893 8.31806 33.8672 8.36972 33.8672 8.70555C33.8672 9.04138 33.893 9.09305 34.0222 9.11888C34.0997 9.14472 34.4097 9.19638 34.7197 9.24805C35.3138 9.35138 35.4947 9.45472 35.753 9.79055C36.218 10.3847 36.2955 11.4697 36.2955 15.9905C36.2955 19.6846 36.218 21.5446 36.0372 22.113C35.8305 22.8105 35.443 23.1721 34.7713 23.3013C34.5647 23.353 34.2805 23.4046 34.1513 23.4305L33.9189 23.4821L33.893 23.9471C33.8672 24.2829 33.893 24.4379 33.9705 24.4896C34.0222 24.5154 36.3472 24.5413 39.1371 24.5413L44.2262 24.5154L44.2521 23.9729C44.2521 23.6888 44.2521 23.4305 44.2262 23.4305C43.8388 23.4305 42.6246 23.2755 42.4179 23.1721C41.8496 22.9396 41.5654 22.423 41.4363 21.3638C41.3071 20.1496 41.2038 17.0755 41.2554 14.5955C41.3071 12.0639 41.3071 12.0639 41.4621 11.883C41.8238 11.4955 42.7538 11.1855 43.6063 11.1855C44.2779 11.1855 44.9754 11.3664 45.6987 11.7022C46.0604 11.883 46.3704 11.9864 46.4221 11.9864C46.5254 11.9605 48.1787 7.54306 48.1787 7.3364C48.1787 7.07807 47.2229 6.76807 46.2929 6.76807Z" fill="#9A9A9A"/>
<path d="M33.892 14.4407C33.5304 11.3924 32.2387 9.17074 30.0946 7.90492C27.7179 6.50994 24.1271 6.43244 21.5697 7.72409C19.7097 8.65408 18.2114 10.4366 17.5397 12.5032C16.8422 14.6215 16.8422 17.4115 17.5397 19.5556C17.9789 20.9506 18.573 21.9581 19.503 22.8622C20.6139 23.9731 22.0605 24.6706 23.7397 24.903C24.3338 24.9805 26.2196 24.9805 26.8396 24.903C27.1238 24.8514 27.6404 24.7481 27.9504 24.6706C30.9729 23.7922 33.0396 21.4673 33.737 18.1606C33.9179 17.334 33.9954 15.3707 33.892 14.4407ZM26.2455 23.5856C24.3596 24.1539 23.0163 22.3456 22.4997 18.5998C22.3188 17.3856 22.3447 14.079 22.4997 12.7099C22.8613 9.68739 23.7913 8.16325 25.2638 8.16325C25.9355 8.16325 26.2971 8.31824 26.8138 8.8349C28.0538 10.0749 28.6221 12.4515 28.6221 16.1715C28.6221 19.1423 28.3121 21.0023 27.6663 22.2681C27.3305 22.8622 26.7363 23.4306 26.2455 23.5856Z" fill="#9A9A9A"/>
<path d="M9.09324 2.29886H11.2632C13.7432 2.29886 14.1565 2.35053 15.0349 2.78969C16.3007 3.40969 17.2307 4.64968 18.0573 6.81967C18.3932 7.698 18.3932 7.698 19.1165 7.4655L19.6073 7.3105L19.5556 4.13302C19.5298 2.37636 19.4781 0.82637 19.4781 0.697204L19.4265 0.413042L9.94574 0.387207C4.72745 0.387207 0.361664 0.387209 0.232498 0.413042L0 0.464707L0.0258327 1.03304L0.0516654 1.60137L0.774992 1.67887C1.70498 1.7822 2.27331 2.06636 2.60914 2.53136C3.3583 3.61636 3.48747 5.11468 3.48747 12.1671C3.48747 19.6846 3.33247 21.5188 2.60914 22.4487C2.24748 22.9396 1.93748 23.0946 1.08499 23.2496C-0.0258339 23.4562 0.0258327 23.4304 0.0258327 23.9987C0.0258327 24.3087 0.0516666 24.4896 0.103333 24.5154C0.232498 24.5671 12.3482 24.5671 12.4774 24.5154C12.6324 24.4637 12.6324 23.5596 12.4774 23.4821C12.3999 23.4562 12.0124 23.3787 11.5732 23.3012C11.1341 23.2237 10.6691 23.1204 10.5141 23.0687C9.71324 22.7329 9.27408 21.7771 9.11908 20.0463C8.98991 18.8063 8.91241 16.5071 8.91241 14.828V13.278L9.66157 13.3038C11.2374 13.3555 12.0382 13.433 12.374 13.588C13.0974 13.898 13.6657 14.7763 13.9499 16.0163L14.1049 16.6621L14.6732 16.6879L15.2415 16.7138V8.44716L14.6732 8.47299L14.1049 8.49883L13.9499 9.14466C13.6399 10.4105 13.1232 11.1855 12.3482 11.5471C12.0382 11.7021 11.8057 11.728 11.0824 11.7796C10.5916 11.8055 9.89407 11.8313 9.55824 11.8313H8.91241V9.79049C8.91241 7.74967 9.01574 3.38386 9.09324 2.71219V2.29886Z" fill="#9A9A9A"/>
<path d="M95.1436 16.8692C94.5753 15.7067 93.4903 14.9317 91.2687 14.0017C89.4604 13.2526 88.5304 12.7101 87.9879 12.116C87.5229 11.6251 87.3937 11.2118 87.4454 10.4885C87.4971 9.81683 87.6521 9.40351 88.0912 8.93852C88.6337 8.34436 89.4087 8.1377 90.3129 8.34436C91.7854 8.65435 92.7412 9.68767 93.5678 11.8576C93.852 12.6326 93.9037 12.6584 94.4203 12.4518L94.7562 12.3226V11.4185C94.7562 10.9276 94.7303 9.89433 94.7045 9.11934L94.6528 7.72437L94.3945 7.62104C93.0253 7.05272 90.442 6.69106 88.7629 6.84606C86.8512 7.02689 85.4304 7.62104 84.3454 8.75769C83.2604 9.8685 82.7696 11.186 82.8729 12.7359C82.9504 14.0276 83.3121 14.9317 84.1129 15.7584C84.8363 16.5075 85.4563 16.8692 87.2387 17.5667C90.0804 18.6775 90.8554 19.3491 90.8295 20.7183C90.8295 21.8807 90.2095 22.7332 89.0987 23.1207C88.6854 23.2499 87.6779 23.2499 87.1354 23.1207C85.7146 22.7591 84.6296 21.5191 83.6996 19.2458L83.4671 18.6516L83.1829 18.6775C83.0279 18.6775 82.8213 18.7291 82.7179 18.7808L82.5371 18.8841L82.5629 19.8916C82.5629 20.4341 82.5888 21.5966 82.6146 22.4491L82.6663 24.0249L82.9763 24.154C83.6221 24.4382 85.5854 24.8515 86.7996 24.9807C86.9546 25.0065 87.7812 25.0065 88.6596 24.9807C90.1579 24.9549 90.287 24.9549 91.0362 24.7482C93.2837 24.154 94.7303 22.9141 95.3762 21.0283C95.5828 20.4341 95.6087 20.2791 95.6345 19.4008C95.6087 18.2125 95.5053 17.6183 95.1436 16.8692Z" fill="#9A9A9A"/>
<path d="M77.8091 7.46541C75.9232 6.50959 73.0041 6.58709 70.8858 7.6204C68.8708 8.60205 67.4758 10.2554 66.7008 12.5803C66.2875 13.7945 66.1583 14.7503 66.21 16.3261C66.2358 17.3077 66.2875 17.8244 66.3908 18.2894C67.1917 21.8543 69.62 24.2568 73.0299 24.8768C73.7791 25.006 75.4841 25.006 76.2332 24.8768C77.3182 24.696 78.5582 24.2051 79.359 23.6626C80.3149 23.0168 81.2965 22.0352 81.2965 21.7252C81.2965 21.5443 80.9607 21.1052 80.8315 21.1052C80.7799 21.1052 80.4957 21.2344 80.2374 21.4152C79.3074 22.0352 78.4032 22.2677 77.1374 22.2677C75.4066 22.2677 74.3216 21.8285 73.2108 20.7177C72.7199 20.2269 72.5133 19.9685 72.2808 19.4777C71.7383 18.4186 71.4283 17.1786 71.3766 15.7836L71.3508 15.1894L76.4399 15.1636L81.529 15.1378L81.5549 14.802C81.5549 14.6211 81.5549 14.1303 81.5032 13.6911C81.1932 10.6687 79.9274 8.55039 77.8091 7.46541ZM72.6941 13.7428L71.4025 13.7686V13.4845C71.4025 13.3295 71.4541 12.9161 71.5058 12.5803C71.9449 9.8162 72.9783 8.1629 74.2699 8.1629C75.4582 8.1629 76.1816 9.79037 76.3366 12.787L76.3882 13.6395L75.1999 13.6911C74.5283 13.6911 73.3916 13.717 72.6941 13.7428Z" fill="#9A9A9A"/>
<path d="M59.39 7.15575C58.9767 7.07825 58.615 7.05242 57.84 7.07825C56.6517 7.12992 55.8509 7.28492 54.9467 7.69824C54.6626 7.82741 54.4042 7.95657 54.3784 7.95657C54.3526 7.95657 54.3526 6.1741 54.3784 3.97829C54.4042 0.878325 54.4042 0 54.3267 0C54.0942 0 47.0935 1.34332 47.016 1.39499C46.9643 1.44665 46.9385 1.60165 46.9385 1.80831C46.9643 2.19581 46.9126 2.16998 47.7651 2.35081C48.0235 2.40247 48.3335 2.53164 48.4368 2.60914C48.721 2.8158 48.9535 3.25496 49.1343 3.87495C49.2635 4.36578 49.2893 4.72745 49.341 8.08574C49.3926 11.5215 49.3926 15.0607 49.2893 21.5189L49.2376 24.2055L49.7285 24.3089C50.4518 24.4639 52.5443 24.8255 53.2159 24.903C54.2234 25.0064 56.5484 24.9805 57.2975 24.8772C60.5267 24.3864 62.955 22.5264 64.0917 19.6589C64.4017 18.9098 64.6858 17.7215 64.7891 16.869C64.9183 15.8615 64.8408 13.8207 64.66 12.994C63.9883 9.86822 62.025 7.69824 59.39 7.15575ZM54.4817 23.3531C54.4042 23.1206 54.3009 15.0607 54.3267 11.8574L54.3526 9.35156L54.8176 9.22239C55.1276 9.14489 55.4892 9.09323 55.9026 9.09323C56.4967 9.09323 56.5484 9.11906 57.0392 9.35156C58.2275 9.94572 59.0284 11.3924 59.4159 13.5882C59.545 14.4148 59.5709 16.6365 59.4417 17.6181C59.1317 20.0206 58.3567 21.9581 57.2975 22.8881C56.8842 23.2497 56.4967 23.4564 56.0059 23.5597C55.6442 23.6372 55.5409 23.6372 54.8692 23.5856C54.6109 23.5339 54.5592 23.5081 54.4817 23.3531Z" fill="#9A9A9A"/>
</svg>
