<svg width="108" height="25" viewBox="0 0 108 25" fill="none" xmlns="http://www.w3.org/2000/svg">
<path d="M19.7739 5.12898e-05C17.7116 0.00863773 15.6601 1.0937 14.6361 3.25462L14.1631 4.25206V12.4939V20.7356L14.6361 21.7331C15.3702 23.2824 16.5066 24.2604 18.2096 24.8003C19.4302 25.1873 21.3758 24.9834 22.6168 24.3414C23.4218 23.925 24.561 22.6852 25.0007 21.7471L25.4035 20.8855V12.4939V4.10221L24.9633 3.21247C23.9064 1.06022 21.8362 -0.00853216 19.7739 5.12898e-05ZM19.8676 4.08348C19.9422 4.08393 20.0168 4.09132 20.0877 4.1069C20.3255 4.15912 20.7222 4.43481 20.9729 4.72035L21.4319 5.24014V12.4564V19.6726L21.0947 20.1643C20.9092 20.436 20.5609 20.7269 20.3219 20.8106C20.0829 20.8942 19.8131 20.9616 19.7224 20.9604C19.3612 20.9556 18.8006 20.5561 18.4766 20.0754L18.1347 19.5696V12.5126C18.1352 5.77639 18.1459 5.43107 18.4251 4.97322C18.7553 4.43172 19.3455 4.07997 19.8676 4.08348Z" fill="#9A9A9A"/>
<path d="M67.0254 24.722C65.2882 24.0777 64.1469 22.9679 63.4893 21.2831C63.2579 20.6902 63.2346 19.6889 63.2387 10.4938L63.2431 0.358044L65.2674 0.316351L67.2917 0.274658L67.2939 9.98176C67.2956 17.4832 67.339 19.774 67.4848 20.0635C67.5886 20.2695 67.912 20.5667 68.2035 20.7237C68.8584 21.0767 69.4073 20.9683 70.0086 20.367L70.439 19.9367V10.1057V0.274658L72.4647 0.316351L74.4905 0.358044L74.49 10.4995C74.4896 20.4097 74.4825 20.6599 74.1772 21.4756C73.7363 22.6538 72.6116 23.8366 71.3614 24.4366C70.058 25.0622 68.2617 25.1804 67.0254 24.722H67.0254Z" fill="#9A9A9A"/>
<path d="M0 12.4959V0.282959H5.02071H10.0414V2.38088V4.4788H7.11892H4.19642V7.33371V10.1886L6.03235 10.1631L7.86828 10.1376L7.90998 12.1784L7.95168 14.2192H6.07405H4.19642V19.464V24.7088H2.09821H0V12.4959V12.4959Z" fill="#9A9A9A"/>
<path d="M31.0225 12.4959V0.283203H34.1383C37.5311 0.283203 38.4598 0.423697 39.6407 1.11564C40.5315 1.63761 41.4625 2.68704 41.9362 3.70303C42.3194 4.52498 42.3346 4.66189 42.3834 7.73071C42.424 10.2846 42.3866 11.0919 42.1929 11.8479C41.9133 12.9393 41.4036 13.8695 40.6995 14.5735L40.2016 15.0713L41.5153 19.5695C42.2378 22.0435 42.8747 24.2119 42.9307 24.3881C43.0314 24.7054 43.011 24.7086 40.8696 24.7086H38.7069L38.0774 22.2736C37.4502 19.847 35.8486 13.7676 35.7128 13.2975C35.6613 13.1194 35.766 13.0228 36.0869 12.9523C36.6815 12.8217 37.7557 11.8845 38.011 11.2736C38.1592 10.919 38.2163 10.0272 38.2163 8.06864V5.35502L37.7782 4.917C37.3711 4.50995 37.2598 4.47898 36.2046 4.47898H35.069V14.5938V24.7086H33.0457H31.0225V12.4959V12.4959Z" fill="#9A9A9A"/>
<path d="M50.6544 24.5962C50.6535 24.5344 50.6367 19.9996 50.6169 14.5189L50.581 4.5539L48.7451 4.51183L46.9092 4.46975V2.37648V0.283203H52.6043H58.2994V2.38109V4.47898H56.501H54.7025V14.5938V24.7086H52.6792C51.5664 24.7086 50.6553 24.658 50.6544 24.5962Z" fill="#9A9A9A"/>
<path d="M79.8809 12.4959V0.283118H81.9481H84.0154L84.175 0.845054C84.2628 1.15412 84.9454 3.32881 85.6918 5.6777C86.4382 8.02659 87.2623 10.6396 87.5231 11.4844C87.7839 12.3291 88.0608 13.0203 88.1386 13.0203C88.225 13.0203 88.2761 10.5607 88.2703 6.68918L88.2606 0.358043L90.2905 0.316351L92.3203 0.274658V12.4916V24.7086H90.0283H87.7364L87.3073 23.3225C87.0713 22.5601 86.6556 21.238 86.3835 20.3843C86.1114 19.5307 85.5034 17.592 85.0324 16.0762C84.5615 14.5603 84.1202 13.32 84.0518 13.32C83.9834 13.32 83.9274 15.8825 83.9274 19.0143V24.7086H81.9041H79.8809V12.4959H79.8809Z" fill="#9A9A9A"/>
<path d="M97.7168 12.4959V0.283203H102.738H107.758V2.38109V4.47898H104.757H101.757L101.798 7.28865L101.838 10.0983H103.749H105.66L105.66 12.1587L105.66 14.2192H103.712H101.763V17.366V20.5128H104.761H107.758V22.6107V24.7086H102.738H97.7168V12.4959H97.7168Z" fill="#9A9A9A"/>
</svg>
