<svg id="icon" xmlns="http://www.w3.org/2000/svg" width="24" height="24" viewBox="0 0 24 24" fill="none">
<path fill-rule="evenodd" clip-rule="evenodd" d="M13.257 13.8898C14.5772 13.7339 15.9814 13.2538 15.9814 10.9735C15.9814 10.3254 15.7531 9.79724 15.3814 9.38912C15.4414 9.23325 15.6332 8.64509 15.3091 7.8291C15.3091 7.8291 14.829 7.67301 13.7011 8.42903C13.221 8.29716 12.693 8.213 12.201 8.213C11.6968 8.213 11.1686 8.29716 10.7005 8.42903C9.56037 7.67301 9.08035 7.8291 9.08035 7.8291C8.7564 8.64509 8.94848 9.23325 9.00842 9.38912C8.6363 9.79721 8.40828 10.3254 8.40828 10.9735C8.40828 13.2538 9.81242 13.7339 11.1326 13.8898C10.9647 14.034 10.8087 14.3098 10.7487 14.6939C10.4125 14.8379 9.5364 15.114 9.00842 14.2019C9.00842 14.2019 8.69627 13.6379 8.1083 13.602C8.1083 13.602 7.52015 13.59 8.06032 13.9617C8.06032 13.9617 8.45623 14.142 8.72043 14.8258C8.72043 14.8258 9.08035 15.9662 10.7365 15.606V16.6261C10.7365 16.7824 10.6166 16.9622 10.3166 16.9143C7.96423 16.1341 6.27209 13.9017 6.27209 11.2855C6.27209 8.00898 8.92429 5.35681 12.201 5.35681C15.4654 5.35681 18.1297 8.00901 18.1178 11.2855C18.1178 13.9017 16.4254 16.1221 14.0732 16.9143C13.773 16.9742 13.6531 16.7944 13.6531 16.6261V14.9821C13.6531 14.4297 13.4729 14.07 13.257 13.8898ZM18.9699 11.2977C18.9699 7.55291 15.9334 4.5166 12.201 4.5166C8.45623 4.5166 5.41992 7.55291 5.41992 11.2977C5.41992 15.0301 8.45623 18.0666 12.201 18.0666C15.9334 18.0666 18.9699 15.0301 18.9699 11.2977Z" fill="#C5A063"/>
</svg>
