<svg id="icon" width="41" height="40" viewBox="0 0 41 40" fill="none" xmlns="http://www.w3.org/2000/svg">
<path opacity="0.2" d="M12.8335 22.5V28.75C12.8335 29.413 12.5701 30.0489 12.1013 30.5178C11.6324 30.9866 10.9965 31.25 10.3335 31.25H7.8335C7.17045 31.25 6.53457 30.9866 6.06573 30.5178C5.59689 30.0489 5.3335 29.413 5.3335 28.75V20H10.3335C10.9965 20 11.6324 20.2634 12.1013 20.7322C12.5701 21.2011 12.8335 21.837 12.8335 22.5ZM30.3335 20C29.6705 20 29.0346 20.2634 28.5657 20.7322C28.0969 21.2011 27.8335 21.837 27.8335 22.5V28.75C27.8335 29.413 28.0969 30.0489 28.5657 30.5178C29.0346 30.9866 29.6705 31.25 30.3335 31.25H35.3335V20H30.3335Z" fill="#C5A063"/>
<path d="M31.8788 8.54067C29.6086 6.25721 26.7117 4.69906 23.5551 4.06367C20.3985 3.42829 17.1243 3.74425 14.1475 4.97154C11.1706 6.19883 8.62509 8.28219 6.83347 10.9576C5.04184 13.6331 4.08476 16.7801 4.0835 20V28.75C4.0835 29.7446 4.47858 30.6984 5.18185 31.4017C5.88511 32.105 6.83893 32.5 7.8335 32.5H10.3335C11.3281 32.5 12.2819 32.105 12.9851 31.4017C13.6884 30.6984 14.0835 29.7446 14.0835 28.75V22.5C14.0835 21.5055 13.6884 20.5517 12.9851 19.8484C12.2819 19.1451 11.3281 18.75 10.3335 18.75H6.63975C6.88081 16.1437 7.8598 13.66 9.46197 11.5902C11.0641 9.52037 13.2231 7.95009 15.6858 7.06342C18.1486 6.17676 20.813 6.01044 23.3669 6.58396C25.9207 7.15748 28.2582 8.44708 30.1054 10.3016C32.363 12.5708 33.7517 15.5611 34.0288 18.75H30.3335C29.3389 18.75 28.3851 19.1451 27.6818 19.8484C26.9786 20.5517 26.5835 21.5055 26.5835 22.5V28.75C26.5835 29.7446 26.9786 30.6984 27.6818 31.4017C28.3851 32.105 29.3389 32.5 30.3335 32.5H34.0835C34.0835 33.4946 33.6884 34.4484 32.9851 35.1517C32.2819 35.855 31.3281 36.25 30.3335 36.25H21.5835C21.252 36.25 20.934 36.3817 20.6996 36.6162C20.4652 36.8506 20.3335 37.1685 20.3335 37.5C20.3335 37.8316 20.4652 38.1495 20.6996 38.3839C20.934 38.6183 21.252 38.75 21.5835 38.75H30.3335C31.9911 38.75 33.5808 38.0916 34.7529 36.9195C35.925 35.7474 36.5835 34.1576 36.5835 32.5V20C36.5916 17.8744 36.1803 15.768 35.3729 13.8016C34.5656 11.8352 33.3782 10.0474 31.8788 8.54067ZM10.3335 21.25C10.665 21.25 10.983 21.3817 11.2174 21.6162C11.4518 21.8506 11.5835 22.1685 11.5835 22.5V28.75C11.5835 29.0816 11.4518 29.3995 11.2174 29.6339C10.983 29.8683 10.665 30 10.3335 30H7.8335C7.50198 30 7.18403 29.8683 6.94961 29.6339C6.71519 29.3995 6.5835 29.0816 6.5835 28.75V21.25H10.3335ZM30.3335 30C30.002 30 29.684 29.8683 29.4496 29.6339C29.2152 29.3995 29.0835 29.0816 29.0835 28.75V22.5C29.0835 22.1685 29.2152 21.8506 29.4496 21.6162C29.684 21.3817 30.002 21.25 30.3335 21.25H34.0835V30H30.3335Z" fill="#C5A063"/>
</svg>
