<svg width="40" height="40" viewBox="0 0 40 40" fill="none" xmlns="http://www.w3.org/2000/svg">
<path opacity="0.2" d="M36.25 15C36.2504 16.8399 35.7995 18.6519 34.9368 20.2771C34.0741 21.9023 32.826 23.2911 31.3018 24.3217C29.7776 25.3524 28.0239 25.9935 26.1944 26.1889C24.3648 26.3842 22.5152 26.1278 20.8078 25.4422L18.75 27.5H15V31.25H11.25V35H5V28.75L14.5578 19.1922C13.941 17.6534 13.6718 15.9974 13.7696 14.3425C13.8674 12.6876 14.3297 11.0747 15.1235 9.61935C15.9173 8.16396 17.0229 6.90199 18.3613 5.92371C19.6996 4.94544 21.2377 4.27504 22.8653 3.96048C24.493 3.64592 26.1701 3.69497 27.7766 4.10413C29.3831 4.51328 30.8793 5.27243 32.1582 6.32725C33.4371 7.38208 34.4671 8.70651 35.1745 10.2058C35.8818 11.7051 36.2491 13.3422 36.25 15Z" fill="#C5A063"/>
<path d="M25 2.5C23.0271 2.50177 21.0825 2.97012 19.3251 3.86681C17.5677 4.76351 16.0473 6.06312 14.888 7.65954C13.7287 9.25596 12.9633 11.1039 12.6545 13.0525C12.3457 15.0012 12.5021 16.9952 13.1109 18.8719L4.11563 27.8656C3.99958 27.9818 3.90756 28.1197 3.84483 28.2714C3.78209 28.4232 3.74987 28.5858 3.75 28.75V35C3.75 35.3315 3.8817 35.6495 4.11612 35.8839C4.35054 36.1183 4.66848 36.25 5 36.25H11.25C11.5815 36.25 11.8995 36.1183 12.1339 35.8839C12.3683 35.6495 12.5 35.3315 12.5 35V32.5H15C15.3315 32.5 15.6495 32.3683 15.8839 32.1339C16.1183 31.8995 16.25 31.5815 16.25 31.25V28.75H18.75C18.9142 28.7501 19.0768 28.7179 19.2286 28.6552C19.3803 28.5924 19.5182 28.5004 19.6344 28.3844L21.1281 26.8891C22.8461 27.4469 24.6646 27.6257 26.4584 27.4132C28.2521 27.2008 29.9785 26.6021 31.5187 25.6584C33.0589 24.7148 34.3762 23.4485 35.3801 21.9469C36.3839 20.4452 37.0504 18.7438 37.3336 16.9599C37.6168 15.1759 37.51 13.3518 37.0206 11.6131C36.5312 9.87437 35.6708 8.26238 34.4986 6.8881C33.3264 5.51383 31.8703 4.40992 30.2305 3.65239C28.5907 2.89486 26.8063 2.50171 25 2.5ZM25 25C23.7346 25.0021 22.4805 24.763 21.3047 24.2953C21.0747 24.1955 20.82 24.1671 20.5737 24.214C20.3273 24.2608 20.1008 24.3806 19.9234 24.5578L18.2328 26.25H15C14.6685 26.25 14.3505 26.3817 14.1161 26.6161C13.8817 26.8505 13.75 27.1685 13.75 27.5V30H11.25C10.9185 30 10.6005 30.1317 10.3661 30.3661C10.1317 30.6005 10 30.9185 10 31.25V33.75H6.25V29.2672L15.4422 20.0766C15.6194 19.8992 15.7392 19.6727 15.786 19.4263C15.8329 19.18 15.8045 18.9253 15.7047 18.6953C14.9142 16.7076 14.782 14.5187 15.3274 12.4503C15.8728 10.3818 17.0671 8.5428 18.735 7.20329C20.4028 5.86378 22.4562 5.09439 24.5936 5.00813C26.7311 4.92188 28.8398 5.5233 30.6101 6.72407C32.3805 7.92483 33.7191 9.66165 34.4295 11.6794C35.1398 13.6972 35.1843 15.8896 34.5566 17.9345C33.9289 19.9795 32.6619 21.7693 30.9418 23.041C29.2217 24.3127 27.1392 24.9993 25 25ZM30 11.875C30 12.2458 29.89 12.6084 29.684 12.9167C29.478 13.225 29.1851 13.4654 28.8425 13.6073C28.4999 13.7492 28.1229 13.7863 27.7592 13.714C27.3955 13.6416 27.0614 13.463 26.7992 13.2008C26.537 12.9386 26.3584 12.6045 26.286 12.2408C26.2137 11.8771 26.2508 11.5001 26.3927 11.1575C26.5346 10.8149 26.775 10.522 27.0833 10.316C27.3916 10.11 27.7542 10 28.125 10C28.6223 10 29.0992 10.1975 29.4508 10.5492C29.8025 10.9008 30 11.3777 30 11.875Z" fill="#C5A063"/>
</svg>
