<svg id="icon" width="32" height="32" viewBox="0 0 32 32" fill="none" xmlns="http://www.w3.org/2000/svg">
<path id="Vector" d="M10.9688 23.6162V11.8129H7.21875V23.6162H10.9688ZM9.09442 10.2016C10.4019 10.2016 11.2159 9.29517 11.2159 8.16249C11.1913 7.00409 10.4019 6.12305 9.11932 6.12305C7.83578 6.12305 6.99756 7.00409 6.99756 8.16249C6.99756 9.29517 7.8112 10.2016 9.06984 10.2016H9.09442ZM13.0443 23.6162H16.794V17.0255C16.794 16.673 16.8187 16.32 16.9176 16.0683C17.1886 15.3632 17.8057 14.6332 18.8418 14.6332C20.1984 14.6332 20.7414 15.7155 20.7414 17.3025V23.6162H24.4911V16.8486C24.4911 13.2232 22.6412 11.5362 20.1742 11.5362C18.1513 11.5362 17.263 12.7189 16.7695 13.5246H16.7944V11.8132H13.0447C13.0935 12.9205 13.0443 23.6162 13.0443 23.6162Z" fill="#C5A063"/>
</svg>
