<svg width="113" height="32" viewBox="0 0 113 32" fill="none" xmlns="http://www.w3.org/2000/svg">
<path d="M83.5465 24.3474C79.6787 24.3474 77.2754 22.1055 77.2754 18.4969C77.2754 14.7459 79.4928 12.4159 83.0633 12.4159L83.3649 12.4138C83.8109 12.4138 84.4279 12.4276 85.2701 12.5349V8.00973H87.7955V23.9396C87.7955 23.9396 85.3976 24.3474 83.5465 24.3474ZM83.5242 14.4029C81.0805 14.4029 79.8922 15.7219 79.8922 18.4342C79.8922 20.8683 81.3248 22.3806 83.6293 22.3806C84.0722 22.3806 84.5798 22.353 85.2701 22.2925V14.5633C84.5788 14.4539 84.0244 14.4029 83.5242 14.4029Z" fill="#9A9A9A"/>
<path d="M48.9895 23.9844L42.1736 12.0879L42.1715 23.9844H39.7969V8.9264H43.1209L49.9368 20.7156L49.9347 8.9264H52.339V23.9844H48.9895Z" fill="#9A9A9A"/>
<path d="M70.6965 24.2146C69.5495 24.2146 68.3516 24.0872 66.9264 23.8121L66.7755 23.7834V21.6786L67.0007 21.7285C68.256 21.995 69.3403 22.2255 70.4235 22.2255C71.3018 22.2255 73.343 22.0864 73.343 20.7971C73.343 19.7149 71.9326 19.4452 70.7984 19.2275L70.7273 19.2137C70.517 19.1712 70.3173 19.1329 70.1474 19.0894C68.4854 18.6572 66.7129 18.0104 66.7129 15.7834C66.7129 13.6106 68.4323 12.3648 71.4303 12.3648C72.8693 12.3648 73.9133 12.521 74.7522 12.6463L75.1622 12.7068V14.7458L74.9434 14.7087C73.994 14.5334 72.881 14.354 71.8084 14.354C70.62 14.354 69.2043 14.5759 69.2043 15.6358C69.2043 16.5141 70.3619 16.7658 71.7011 17.0567C73.5734 17.4635 75.896 17.9711 75.896 20.5252C75.896 22.8701 74.0003 24.2146 70.6965 24.2146Z" fill="#9A9A9A"/>
<path d="M94.8775 24.2148C92.2639 24.2148 89.8447 23.7561 89.8447 20.4214C89.8447 16.7936 93.5861 16.7936 95.8205 16.7936C96.0446 16.7936 97.0949 16.8414 97.4188 16.8541C97.4156 14.8194 97.388 14.334 94.4357 14.334C93.2654 14.334 91.9655 14.5666 90.8186 14.7705L90.5998 14.8109V12.7994L90.7495 12.7697C92.0781 12.4978 93.3599 12.3651 94.6672 12.3651C97.5282 12.3651 99.9517 12.655 99.9517 16.2031V23.944L99.7786 23.9621C97.7958 24.1851 96.222 24.2148 94.8775 24.2148ZM95.7568 18.5873C93.602 18.5873 92.2671 18.9049 92.2671 20.483C92.2671 22.3096 93.9716 22.4625 95.5688 22.4625C96.1678 22.4625 97.2415 22.3861 97.5696 22.3617V18.6489C97.1066 18.6309 95.9034 18.5873 95.7568 18.5873Z" fill="#9A9A9A"/>
<path d="M59.4751 24.2148C56.8615 24.2148 54.4434 23.7561 54.4434 20.4214C54.4434 16.7936 58.1837 16.7936 60.4181 16.7936C60.6422 16.7936 61.6925 16.8414 62.0164 16.8541C62.0132 14.8194 61.9856 14.334 59.0333 14.334C57.863 14.334 56.5641 14.5666 55.4161 14.7705L55.1974 14.8109V12.7994L55.3471 12.7697C56.6767 12.4978 57.9575 12.3651 59.2648 12.3651C62.1258 12.3651 64.5503 12.655 64.5503 16.2031V23.944L64.3761 23.9621C62.3945 24.1851 60.8195 24.2148 59.4751 24.2148ZM60.3554 18.5873C58.2007 18.5873 56.8658 18.9049 56.8658 20.483C56.8658 22.3096 58.5692 22.4625 60.1675 22.4625C60.7654 22.4625 61.839 22.3861 62.1672 22.3617V18.6489C61.7042 18.6309 60.5009 18.5873 60.3554 18.5873Z" fill="#9A9A9A"/>
<path d="M110.002 29.0981V24.1598C109.016 24.299 108.491 24.299 108.07 24.299C107.072 24.299 105.961 24.0813 105.101 23.717C103.178 22.9184 102.03 20.8857 102.03 18.2796C102.03 16.9765 102.347 14.5976 104.469 13.3168C105.531 12.6796 106.789 12.4078 108.678 12.4078C109.355 12.4078 110.269 12.4609 111.152 12.5118L112.583 12.5851V27.9544L110.002 29.0981ZM108.489 14.3958C105.927 14.3958 104.626 15.7021 104.626 18.2796C104.626 21.5941 106.567 22.2897 108.196 22.2897C108.591 22.2897 109.038 22.2897 110.025 22.1654V14.468C109.252 14.4149 108.897 14.3958 108.489 14.3958" fill="#9A9A9A"/>
<path d="M28.5236 9.47321e-05L20.1774 22.9285C19.9724 23.4946 19.4553 23.9077 18.834 23.9714V23.9841H27.657C28.3484 23.9841 28.9399 23.5445 29.1608 22.9285L37.5081 9.47321e-05H28.5236Z" fill="#9A9A9A"/>
<path d="M18.1166 23.6335C18.6264 23.6335 19.0756 23.3808 19.3496 22.9963C19.3793 22.956 19.4792 22.8158 19.5482 22.6236L22.611 14.2105L20.8205 9.2977C20.5911 8.75183 20.0516 8.36845 19.4229 8.36845C18.9142 8.36845 18.4639 8.62014 18.1899 9.00565C18.1602 9.04494 18.0412 9.22442 17.9913 9.37841L14.9307 17.7883L16.7276 22.7213C16.9612 23.2576 17.4943 23.6335 18.1166 23.6335Z" fill="#9A9A9A"/>
<path d="M18.7697 8.01682H9.85105C9.15863 8.01682 8.56922 8.45542 8.34621 9.07139L0 32H8.98552L17.3307 9.07139C17.5463 8.4756 18.107 8.04974 18.7697 8.02213V8.01682Z" fill="#9A9A9A"/>
</svg>
