<svg id="icon" width="32" height="32" viewBox="0 0 32 32" fill="none" xmlns="http://www.w3.org/2000/svg">
<path opacity="0.2" d="M11.975 7.02501C12.4644 7.51451 12.7978 8.13815 12.9328 8.81707C13.0678 9.49599 12.9985 10.1997 12.7335 10.8392C12.4686 11.4788 12.02 12.0254 11.4445 12.4099C10.8689 12.7945 10.1922 12.9998 9.5 12.9998C8.80778 12.9998 8.13111 12.7945 7.55554 12.4099C6.97998 12.0254 6.53137 11.4788 6.26646 10.8392C6.00154 10.1997 5.93221 9.49599 6.06723 8.81707C6.20225 8.13815 6.53555 7.51451 7.025 7.02501C7.35001 6.69997 7.73586 6.44213 8.16053 6.26621C8.58519 6.0903 9.04035 5.99976 9.5 5.99976C9.95966 5.99976 10.4148 6.0903 10.8395 6.26621C11.2641 6.44213 11.65 6.69997 11.975 7.02501ZM24.975 20.025C24.4855 19.5356 23.8619 19.2023 23.1829 19.0672C22.504 18.9322 21.8003 19.0015 21.1608 19.2665C20.5213 19.5314 19.9747 19.98 19.5901 20.5556C19.2055 21.1311 19.0003 21.8078 19.0003 22.5C19.0003 23.1922 19.2055 23.8689 19.5901 24.4445C19.9747 25.02 20.5213 25.4686 21.1608 25.7336C21.8003 25.9985 22.504 26.0678 23.1829 25.9328C23.8619 25.7978 24.4855 25.4645 24.975 24.975C25.3 24.65 25.5579 24.2641 25.7338 23.8395C25.9097 23.4148 26.0003 22.9597 26.0003 22.5C26.0003 22.0404 25.9097 21.5852 25.7338 21.1605C25.5579 20.7359 25.3 20.35 24.975 20.025Z" fill="#C5A063"/>
<path d="M25.7078 7.705L7.70779 25.705C7.52015 25.8926 7.26566 25.9981 7.00029 25.9981C6.73493 25.9981 6.48043 25.8926 6.29279 25.705C6.10515 25.5174 5.99974 25.2629 5.99974 24.9975C5.99974 24.7321 6.10515 24.4776 6.29279 24.29L24.2928 6.29C24.4803 6.10236 24.7346 5.99688 24.9999 5.99676C25.2651 5.99664 25.5195 6.1019 25.7072 6.28938C25.8948 6.47685 26.0003 6.73119 26.0004 6.99643C26.0005 7.26168 25.8953 7.51611 25.7078 7.70375V7.705ZM6.31779 12.68C5.47391 11.8359 4.99988 10.6912 5 9.49768C5.00012 8.30413 5.47437 7.15951 6.31842 6.31563C7.16247 5.47174 8.30718 4.99772 9.50073 4.99783C10.6943 4.99795 11.8389 5.4722 12.6828 6.31625C13.5267 7.1603 14.0007 8.30502 14.0006 9.49857C14.0005 10.6921 13.5262 11.8367 12.6822 12.6806C11.8381 13.5245 10.6934 13.9985 9.49985 13.9984C8.3063 13.9983 7.16168 13.5241 6.31779 12.68ZM7.00029 9.5C7.00062 9.91106 7.10229 10.3157 7.29632 10.6781C7.49035 11.0405 7.77074 11.3494 8.11267 11.5776C8.4546 11.8057 8.84751 11.9461 9.25661 11.9861C9.66572 12.0262 10.0784 11.9648 10.4581 11.8073C10.8378 11.6498 11.1728 11.4011 11.4334 11.0833C11.6941 10.7654 11.8723 10.3882 11.9524 9.985C12.0325 9.58181 12.0119 9.1651 11.8925 8.77177C11.7731 8.37844 11.5585 8.02062 11.2678 7.73C10.918 7.38033 10.4724 7.14226 9.98726 7.04592C9.50214 6.94958 8.99935 6.9993 8.5425 7.18878C8.08565 7.37827 7.69527 7.69901 7.42075 8.11041C7.14623 8.52182 6.9999 9.00541 7.00029 9.5ZM27.0003 22.5C27.0001 23.5411 26.6388 24.5499 25.9782 25.3545C25.3176 26.1591 24.3984 26.7098 23.3773 26.9127C22.3561 27.1156 21.2962 26.9581 20.3782 26.4672C19.4601 25.9762 18.7407 25.1821 18.3425 24.2202C17.9443 23.2583 17.8919 22.1881 18.1943 21.1919C18.4967 20.1957 19.1352 19.3351 20.0009 18.7569C20.8666 18.1787 21.9061 17.9185 22.9421 18.0207C23.9782 18.1229 24.9468 18.5812 25.6828 19.3175C26.102 19.7345 26.4342 20.2305 26.6604 20.7768C26.8865 21.323 27.0021 21.9088 27.0003 22.5ZM25.0003 22.5C25.0004 21.9216 24.8 21.3611 24.4331 20.9139C24.0663 20.4667 23.5558 20.1606 22.9885 20.0476C22.4212 19.9346 21.8324 20.0219 21.3222 20.2944C20.8121 20.567 20.4122 21.008 20.1908 21.5423C19.9693 22.0767 19.94 22.6712 20.1078 23.2248C20.2756 23.7783 20.6302 24.2565 21.111 24.5779C21.5919 24.8993 22.1693 25.0441 22.7449 24.9875C23.3206 24.9309 23.8587 24.6764 24.2678 24.2675C24.5007 24.0359 24.6853 23.7605 24.8111 23.4571C24.9368 23.1537 25.0011 22.8284 25.0003 22.5Z" fill="#C5A063"/>
</svg>