<svg width="40" height="40" viewBox="0 0 40 40" fill="none" xmlns="http://www.w3.org/2000/svg">
<path opacity="0.2" d="M24.9156 8.28125L22.1375 21.25H17.8625L15.0844 8.28125C14.968 7.73492 14.9752 7.16948 15.1053 6.62627C15.2355 6.08305 15.4853 5.57577 15.8366 5.14149C16.188 4.70721 16.6319 4.3569 17.1359 4.11615C17.64 3.87541 18.1914 3.75031 18.75 3.75H21.25C21.8086 3.75031 22.3601 3.87541 22.8641 4.11615C23.3682 4.3569 23.8121 4.70721 24.1634 5.14149C24.5147 5.57577 24.7646 6.08305 24.8947 6.62627C25.0249 7.16948 25.032 7.73492 24.9156 8.28125Z" fill="#C5A063"/>
<path d="M35 35C35 35.3315 34.8683 35.6495 34.6339 35.8839C34.3995 36.1183 34.0815 36.25 33.75 36.25H6.25C5.91848 36.25 5.60054 36.1183 5.36612 35.8839C5.1317 35.6495 5 35.3315 5 35C5 34.6685 5.1317 34.3505 5.36612 34.1161C5.60054 33.8817 5.91848 33.75 6.25 33.75H33.75C34.0815 33.75 34.3995 33.8817 34.6339 34.1161C34.8683 34.3505 35 34.6685 35 35ZM35 22.5V28.75C35 29.413 34.7366 30.0489 34.2678 30.5178C33.7989 30.9866 33.163 31.25 32.5 31.25H7.5C6.83696 31.25 6.20107 30.9866 5.73223 30.5178C5.26339 30.0489 5 29.413 5 28.75V22.5C5 21.837 5.26339 21.2011 5.73223 20.7322C6.20107 20.2634 6.83696 20 7.5 20H16.3172L13.8625 8.54844C13.7062 7.81952 13.7148 7.06487 13.8878 6.33972C14.0608 5.61458 14.3938 4.9373 14.8623 4.35745C15.3309 3.7776 15.9232 3.30987 16.5958 2.98848C17.2685 2.6671 18.0045 2.5002 18.75 2.5H21.25C21.9956 2.49997 22.7318 2.6667 23.4047 2.98798C24.0775 3.30926 24.67 3.77697 25.1387 4.35684C25.6075 4.93672 25.9406 5.61408 26.1136 6.33934C26.2867 7.0646 26.2954 7.81939 26.1391 8.54844L23.6828 20H32.5C33.163 20 33.7989 20.2634 34.2678 20.7322C34.7366 21.2011 35 21.837 35 22.5ZM18.8734 20H21.1266L23.6937 8.02344C23.7718 7.65903 23.7673 7.28179 23.6808 6.91932C23.5942 6.55685 23.4277 6.21831 23.1935 5.92848C22.9592 5.63865 22.6631 5.40486 22.3269 5.24421C21.9906 5.08356 21.6227 5.00012 21.25 5H18.75C18.3772 4.99989 18.0091 5.08316 17.6726 5.24371C17.3362 5.40425 17.0399 5.63801 16.8055 5.92787C16.571 6.21773 16.4044 6.55635 16.3177 6.91894C16.2311 7.28153 16.2266 7.6589 16.3047 8.02344L18.8734 20ZM32.5 28.75V22.5H7.5V28.75H32.5Z" fill="#C5A063"/>
</svg>