<svg id="icon" width="32" height="32" viewBox="0 0 32 32" fill="none" xmlns="http://www.w3.org/2000/svg">
<rect width="32" height="32" fill="none"/>
<path id="Vector" d="M12.8629 24.0492C19.8456 24.0492 23.6635 18.2633 23.6635 13.2487C23.6635 13.0834 23.6635 12.9181 23.6556 12.7607C24.3956 12.2253 25.0411 11.5562 25.5528 10.7926C24.8757 11.0918 24.1437 11.2965 23.3722 11.3909C24.1594 10.9186 24.7577 10.1786 25.0411 9.28908C24.309 9.72204 23.4982 10.0369 22.6323 10.2101C21.9396 9.47013 20.9555 9.01355 19.8612 9.01355C17.7674 9.01355 16.067 10.7139 16.067 12.8078C16.067 13.107 16.0984 13.3983 16.1692 13.6739C13.0125 13.5164 10.218 12.0049 8.34442 9.7063C8.02167 10.2652 7.83274 10.9186 7.83274 11.6113C7.83274 12.926 8.50187 14.091 9.52523 14.768C8.90334 14.7523 8.32081 14.5791 7.80912 14.2957C7.80912 14.3115 7.80912 14.3273 7.80912 14.3429C7.80912 16.185 9.11589 17.7121 10.8556 18.0664C10.5407 18.153 10.2022 18.2003 9.85586 18.2003C9.61183 18.2003 9.37566 18.1766 9.1395 18.1294C9.6197 19.6409 11.0209 20.7351 12.682 20.7666C11.383 21.7821 9.74565 22.3882 7.96656 22.3882C7.65955 22.3882 7.36042 22.3725 7.06128 22.3331C8.72228 23.4194 10.7218 24.0492 12.8629 24.0492Z" fill="#C5A063"/>
</svg>
