<svg id="icon" width="33" height="32" viewBox="0 0 33 32" fill="none" xmlns="http://www.w3.org/2000/svg">
<path opacity="0.2" d="M27.5 6H5.5C5.23478 6 4.98043 6.10536 4.79289 6.29289C4.60536 6.48043 4.5 6.73478 4.5 7V24C4.5 24.2652 4.60536 24.5196 4.79289 24.7071C4.98043 24.8946 5.23478 25 5.5 25H27.5C27.7652 25 28.0196 24.8946 28.2071 24.7071C28.3946 24.5196 28.5 24.2652 28.5 24V7C28.5 6.73478 28.3946 6.48043 28.2071 6.29289C28.0196 6.10536 27.7652 6 27.5 6ZM19.5 21C18.5111 21 17.5444 20.7068 16.7221 20.1573C15.8999 19.6079 15.259 18.827 14.8806 17.9134C14.5022 16.9998 14.4031 15.9945 14.5961 15.0245C14.789 14.0546 15.2652 13.1637 15.9645 12.4645C16.6637 11.7652 17.5546 11.289 18.5245 11.0961C19.4945 10.9031 20.4998 11.0022 21.4134 11.3806C22.327 11.759 23.1079 12.3999 23.6573 13.2221C24.2068 14.0444 24.5 15.0111 24.5 16C24.5 16.6566 24.3707 17.3068 24.1194 17.9134C23.8681 18.52 23.4998 19.0712 23.0355 19.5355C22.5712 19.9998 22.02 20.3681 21.4134 20.6194C20.8068 20.8707 20.1566 21 19.5 21Z" fill="#C5A063"/>
<path d="M27.5 5H5.5C4.96957 5 4.46086 5.21071 4.08579 5.58579C3.71071 5.96086 3.5 6.46957 3.5 7V24C3.5 24.5304 3.71071 25.0391 4.08579 25.4142C4.46086 25.7893 4.96957 26 5.5 26H7.5V28C7.5 28.2652 7.60536 28.5196 7.79289 28.7071C7.98043 28.8946 8.23478 29 8.5 29C8.76522 29 9.01957 28.8946 9.20711 28.7071C9.39464 28.5196 9.5 28.2652 9.5 28V26H23.5V28C23.5 28.2652 23.6054 28.5196 23.7929 28.7071C23.9804 28.8946 24.2348 29 24.5 29C24.7652 29 25.0196 28.8946 25.2071 28.7071C25.3946 28.5196 25.5 28.2652 25.5 28V26H27.5C28.0304 26 28.5391 25.7893 28.9142 25.4142C29.2893 25.0391 29.5 24.5304 29.5 24V7C29.5 6.46957 29.2893 5.96086 28.9142 5.58579C28.5391 5.21071 28.0304 5 27.5 5ZM27.5 24H5.5V7H27.5V15H25.415C25.1643 13.5166 24.3654 12.1815 23.1767 11.2594C21.9881 10.3372 20.4963 9.89521 18.9972 10.021C17.498 10.1468 16.1008 10.8312 15.0824 11.9386C14.0641 13.046 13.4989 14.4956 13.4989 16C13.4989 17.5044 14.0641 18.954 15.0824 20.0614C16.1008 21.1688 17.498 21.8532 18.9972 21.979C20.4963 22.1048 21.9881 21.6628 23.1767 20.7406C24.3654 19.8185 25.1643 18.4834 25.415 17H27.5V24ZM21.23 15C21.0099 14.6187 20.6701 14.3207 20.2633 14.1522C19.8566 13.9838 19.4056 13.9542 18.9803 14.0681C18.555 14.1821 18.1793 14.4332 17.9112 14.7825C17.6432 15.1318 17.4979 15.5597 17.4979 16C17.4979 16.4403 17.6432 16.8682 17.9112 17.2175C18.1793 17.5668 18.555 17.8179 18.9803 17.9319C19.4056 18.0458 19.8566 18.0162 20.2633 17.8478C20.6701 17.6793 21.0099 17.3813 21.23 17H23.375C23.1316 17.9427 22.5528 18.7642 21.747 19.3106C20.9412 19.857 19.9638 20.0908 18.998 19.9681C18.0322 19.8454 17.1443 19.3747 16.5007 18.6442C15.8571 17.9137 15.502 16.9736 15.502 16C15.502 15.0264 15.8571 14.0863 16.5007 13.3558C17.1443 12.6253 18.0322 12.1546 18.998 12.0319C19.9638 11.9092 20.9412 12.143 21.747 12.6894C22.5528 13.2358 23.1316 14.0573 23.375 15H21.23Z" fill="#C5A063"/>
</svg>
