<svg width="25" height="25" viewBox="0 0 25 25" fill="none" xmlns="http://www.w3.org/2000/svg">
<path opacity="0.2" d="M21.8945 8.27808V18.7781C21.8945 18.977 21.8155 19.1678 21.6749 19.3084C21.5342 19.4491 21.3434 19.5281 21.1445 19.5281H6.14453C5.74671 19.5281 5.36518 19.37 5.08387 19.0887C4.80257 18.8074 4.64453 18.4259 4.64453 18.0281V6.02808C4.64453 6.4259 4.80257 6.80743 5.08387 7.08874C5.36518 7.37004 5.74671 7.52808 6.14453 7.52808H21.1445C21.3434 7.52808 21.5342 7.60709 21.6749 7.74775C21.8155 7.8884 21.8945 8.07916 21.8945 8.27808Z" fill="#C5A063"/>
<path d="M21.1445 6.77808H6.14453C5.94562 6.77808 5.75485 6.69906 5.6142 6.55841C5.47355 6.41775 5.39453 6.22699 5.39453 6.02808C5.39453 5.82916 5.47355 5.6384 5.6142 5.49775C5.75485 5.35709 5.94562 5.27808 6.14453 5.27808H18.8945C19.0934 5.27808 19.2842 5.19906 19.4249 5.05841C19.5655 4.91775 19.6445 4.72699 19.6445 4.52808C19.6445 4.32916 19.5655 4.1384 19.4249 3.99775C19.2842 3.85709 19.0934 3.77808 18.8945 3.77808H6.14453C5.54779 3.77808 4.9755 4.01513 4.55354 4.43709C4.13158 4.85904 3.89453 5.43134 3.89453 6.02808V18.0281C3.89453 18.6248 4.13158 19.1971 4.55354 19.6191C4.9755 20.041 5.54779 20.2781 6.14453 20.2781H21.1445C21.5424 20.2781 21.9239 20.12 22.2052 19.8387C22.4865 19.5574 22.6445 19.1759 22.6445 18.7781V8.27808C22.6445 7.88025 22.4865 7.49872 22.2052 7.21742C21.9239 6.93611 21.5424 6.77808 21.1445 6.77808ZM21.1445 18.7781H6.14453C5.94562 18.7781 5.75485 18.6991 5.6142 18.5584C5.47355 18.4178 5.39453 18.227 5.39453 18.0281V8.14964C5.63535 8.23501 5.88903 8.27845 6.14453 8.27808H21.1445V18.7781ZM16.6445 13.1531C16.6445 12.9306 16.7105 12.7131 16.8341 12.5281C16.9577 12.3431 17.1334 12.1989 17.339 12.1137C17.5446 12.0286 17.7708 12.0063 17.989 12.0497C18.2072 12.0931 18.4077 12.2002 18.565 12.3576C18.7224 12.5149 18.8295 12.7154 18.8729 12.9336C18.9163 13.1518 18.894 13.378 18.8089 13.5836C18.7237 13.7892 18.5796 13.9649 18.3945 14.0885C18.2095 14.2121 17.992 14.2781 17.7695 14.2781C17.4712 14.2781 17.185 14.1595 16.974 13.9486C16.7631 13.7376 16.6445 13.4514 16.6445 13.1531Z" fill="#C5A063"/>
</svg>
